<svg width="360" height="40" viewBox="0 0 360 40" fill="none" xmlns="http://www.w3.org/2000/svg">
<path d="M30.5438 16.7833C30.5738 17.0831 30.5888 17.368 30.5888 17.6378C30.5888 17.9076 30.5888 18.1775 30.5888 18.4473C30.5888 19.6166 30.3039 20.7409 29.7343 21.8203C29.1946 22.8697 28.4151 23.8141 27.3957 24.6536C26.4063 25.4631 25.222 26.1077 23.8428 26.5874C22.4636 27.0671 20.9495 27.307 19.3005 27.307C16.842 27.307 14.9981 26.7523 13.7688 25.643C12.5695 24.5337 11.9699 23.0945 11.9699 21.3256C11.9699 19.8864 12.4496 18.4023 13.409 16.8732C14.3984 15.3442 16.0175 13.95 18.2661 12.6908C20.5148 11.4315 23.483 10.3971 27.1708 9.58761C30.8586 8.74811 35.4309 8.32837 40.8876 8.32837C42.5666 8.32837 44.0957 8.37334 45.4748 8.46329C46.854 8.55323 48.0383 8.5982 49.0277 8.5982C49.8972 8.5982 50.6168 8.55323 51.1864 8.46329C51.7861 8.37334 52.2958 8.32837 52.7155 8.32837C53.0753 8.32837 53.4051 8.44829 53.7049 8.68815C54.0047 8.89802 54.1546 9.21284 54.1546 9.63258C54.1546 9.90242 54.0647 10.1273 53.8848 10.3072C53.7349 10.4571 53.4501 10.562 53.0303 10.622C52.6106 10.682 52.0409 10.7269 51.3213 10.7569C50.6318 10.7569 49.7473 10.7569 48.6679 10.7569C46.5692 10.7569 44.8152 11.1317 43.4061 11.8812C42.0269 12.6008 40.7377 13.7101 39.5384 15.2092C38.3391 16.6784 37.0949 18.5373 35.8056 20.7859C34.5164 23.0046 32.9124 25.598 30.9935 28.5662C30.3339 29.5856 29.4944 30.7399 28.475 32.0292C27.4856 33.3184 26.3013 34.5327 24.9221 35.672C23.543 36.8113 21.9689 37.7707 20.2 38.5503C18.431 39.3298 16.4372 39.7196 14.2186 39.7196C13.3791 39.7196 12.4946 39.6146 11.5651 39.4048C10.6357 39.2249 9.78121 38.925 9.00168 38.5053C8.25213 38.0556 7.62251 37.4709 7.11281 36.7513C6.6331 36.0318 6.39324 35.1473 6.39324 34.0979C6.39324 33.4383 6.57313 32.8837 6.93292 32.4339C7.32269 31.9542 7.86236 31.7144 8.55195 31.7144C9.03166 31.7144 9.42143 31.8793 9.72125 32.2091C10.0511 32.5089 10.216 32.8987 10.216 33.3784C10.216 33.8281 10.066 34.1879 9.76622 34.4577C9.4664 34.7276 9.12161 34.8625 8.73184 34.8625C8.52197 34.8625 8.34207 34.8325 8.19216 34.7725C8.34207 36.2117 9.01667 37.306 10.216 38.0556C11.4152 38.8051 12.8993 39.1799 14.6683 39.1799C16.3473 39.1799 17.8914 38.8051 19.3005 38.0556C20.7097 37.306 22.0139 36.3166 23.2132 35.0873C24.4424 33.8581 25.5967 32.4639 26.6761 30.9048C27.7554 29.3158 28.8198 27.6818 29.8692 26.0028C30.9485 24.2938 32.0279 22.6148 33.1072 20.9658C34.1866 19.2868 35.3259 17.7577 36.5252 16.3785C37.7245 14.9994 38.9987 13.8301 40.3479 12.8706C41.7271 11.8812 43.2412 11.2366 44.8902 10.9368V10.8469C43.541 10.8469 42.0719 10.7869 40.4828 10.667C38.8938 10.547 37.4247 10.4871 36.0755 10.4871C32.2977 10.4871 28.9397 10.7719 26.0015 11.3416C23.0932 11.8812 20.6347 12.6458 18.6259 13.6352C16.6171 14.5946 15.088 15.7339 14.0387 17.0531C13.0193 18.3724 12.5096 19.7965 12.5096 21.3256C12.5096 23.1245 13.1092 24.4887 14.3085 25.4181C15.5378 26.3176 17.2617 26.7673 19.4804 26.7673C21.0395 26.7673 22.4636 26.5425 23.7528 26.0927C25.0421 25.613 26.1514 24.9984 27.0809 24.2488C28.0103 23.4693 28.7299 22.5848 29.2396 21.5954C29.7792 20.606 30.0491 19.5866 30.0491 18.5373C30.0491 18.2374 30.0491 17.9526 30.0491 17.6828C30.0491 17.3829 30.0341 17.0831 30.0041 16.7833H30.5438ZM55.7881 7.87864L39.8676 31.5345L39.9576 31.6244C40.5572 30.8749 41.2618 30.0204 42.0713 29.061C42.8808 28.0715 43.7503 27.1421 44.6797 26.2726C45.6392 25.4031 46.6436 24.6686 47.6929 24.0689C48.7423 23.4693 49.7917 23.1695 50.841 23.1695C52.6699 23.1695 53.5844 24.0839 53.5844 25.9128C53.5844 26.3925 53.4045 26.9622 53.0447 27.6218C52.7149 28.2814 52.2802 28.986 51.7405 29.7355C51.2308 30.4551 50.6761 31.1897 50.0765 31.9392C49.4769 32.6888 48.9072 33.4233 48.3675 34.1429C47.8578 34.8325 47.4231 35.4921 47.0633 36.1217C46.7335 36.7214 46.5686 37.2311 46.5686 37.6508C46.5686 37.9806 46.6585 38.2654 46.8384 38.5053C47.0483 38.7152 47.3181 38.8201 47.648 38.8201C48.3375 38.8201 49.0871 38.6102 49.8966 38.1905C50.7361 37.7408 51.5906 37.1711 52.4601 36.4815C53.3595 35.7619 54.244 34.9674 55.1135 34.0979C55.983 33.2285 56.7775 32.374 57.4971 31.5345C58.2466 30.665 58.9062 29.8555 59.4759 29.1059C60.0755 28.3264 60.5103 27.6968 60.7801 27.2171L61.0499 27.307C60.7201 27.8767 60.2554 28.5662 59.6558 29.3758C59.0561 30.1853 58.3665 31.0398 57.587 31.9392C56.8374 32.8387 56.0129 33.7382 55.1135 34.6376C54.244 35.5071 53.3595 36.3016 52.4601 37.0212C51.5906 37.7108 50.7211 38.2804 49.8516 38.7302C48.9822 39.1499 48.1726 39.3598 47.4231 39.3598C46.6436 39.3598 45.9989 39.1199 45.4892 38.6402C45.0095 38.1605 44.7697 37.5009 44.7697 36.6614C44.7697 36.0618 44.9346 35.4022 45.2644 34.6826C45.6242 33.963 46.0589 33.2434 46.5686 32.5239C47.1083 31.7743 47.6779 31.0398 48.2776 30.3202C48.8772 29.5706 49.4319 28.8661 49.9416 28.2065C50.4813 27.5469 50.916 26.9472 51.2458 26.4075C51.6056 25.8379 51.7855 25.3582 51.7855 24.9684C51.7855 24.4887 51.6506 24.1589 51.3807 23.979C51.1109 23.7991 50.7811 23.7092 50.3913 23.7092C49.6418 23.7092 48.8023 23.994 47.8728 24.5636C46.9734 25.1033 46.0289 25.8229 45.0395 26.7224C44.0801 27.6218 43.1207 28.6412 42.1612 29.7805C41.2018 30.8899 40.2874 32.0142 39.4179 33.1535C38.5784 34.2928 37.8288 35.3722 37.1692 36.3916C36.5396 37.411 36.0449 38.2804 35.6851 39H32.7619C34.4109 36.4215 36.1049 33.7981 37.8438 31.1297C39.5828 28.4613 41.3067 25.8079 43.0157 23.1695C44.7547 20.5311 46.4487 17.9376 48.0977 15.3891C49.7467 12.8107 51.3058 10.3522 52.7749 8.01356L55.7881 7.87864ZM67.9459 24.9684C67.9459 24.5487 67.826 24.2338 67.5861 24.024C67.3763 23.8141 67.1064 23.7092 66.7766 23.7092C66.147 23.7092 65.4574 23.964 64.7079 24.4737C63.9883 24.9534 63.2687 25.568 62.5491 26.3176C61.8296 27.0372 61.17 27.8167 60.5703 28.6562C60.0007 29.4957 59.5659 30.2452 59.2661 30.9048C59.9257 30.7849 60.7502 30.5601 61.7396 30.2303C62.729 29.8705 63.6735 29.4357 64.5729 28.926C65.5024 28.4163 66.2969 27.8317 66.9565 27.1721C67.6161 26.4825 67.9459 25.7479 67.9459 24.9684ZM75.2315 27.352C74.7818 28.1015 74.2122 28.926 73.5226 29.8255C72.863 30.725 72.0984 31.6244 71.2289 32.5239C70.3894 33.3934 69.475 34.2478 68.4856 35.0873C67.5262 35.8969 66.5218 36.6314 65.4724 37.291C64.423 37.9206 63.3587 38.4303 62.2793 38.8201C61.2299 39.1799 60.1956 39.3598 59.1762 39.3598C57.9169 39.3598 56.9425 39.045 56.2529 38.4154C55.5633 37.7557 55.2185 36.8263 55.2185 35.627C55.2185 34.3078 55.6083 32.9286 56.3878 31.4895C57.1973 30.0204 58.2167 28.6712 59.446 27.4419C60.6753 26.2127 62.0245 25.1933 63.4936 24.3838C64.9627 23.5742 66.3719 23.1695 67.721 23.1695C68.4706 23.1695 69.0552 23.3344 69.475 23.6642C69.8947 23.964 70.1046 24.4137 70.1046 25.0134C70.1046 25.7329 69.7149 26.4375 68.9353 27.1271C68.1558 27.7867 67.1964 28.4013 66.057 28.971C64.9477 29.5107 63.7484 30.0054 62.4592 30.4551C61.17 30.8749 60.0307 31.1897 59.0412 31.3996C58.7114 31.9992 58.4416 32.6738 58.2317 33.4233C58.0219 34.1729 57.9169 34.9224 57.9169 35.672C57.9169 36.0318 57.9469 36.3916 58.0069 36.7513C58.0968 37.0811 58.2167 37.396 58.3666 37.6958C58.5465 37.9656 58.7714 38.1905 59.0412 38.3704C59.3411 38.5503 59.7008 38.6402 60.1206 38.6402C61.11 38.6402 62.2643 38.3254 63.5835 37.6958C64.9327 37.0362 66.2969 36.1667 67.6761 35.0873C69.0552 34.008 70.3745 32.7787 71.6337 31.3996C72.893 30.0204 73.9723 28.5962 74.8718 27.1271L75.2315 27.352ZM95.1999 39.6296C92.4116 39.6296 89.9681 38.985 87.8693 37.6958C85.8006 36.4066 84.1815 34.5327 83.0122 32.0741C81.8729 29.6156 81.3033 26.6624 81.3033 23.2145C81.3033 20.636 81.6481 18.3124 82.3376 16.2436C83.0272 14.1449 83.9867 12.361 85.2159 10.8918C86.4752 9.39273 87.9593 8.23842 89.6683 7.42891C91.4072 6.61939 93.3411 6.21463 95.4698 6.21463C97.2687 6.21463 98.8578 6.52944 100.237 7.15907C101.616 7.78869 102.785 8.58321 103.745 9.54264L104.195 6.16966H105.319L107.118 16.3336L105.904 16.6034C105.184 14.6546 104.329 13.0206 103.34 11.7013C102.351 10.3821 101.196 9.39273 99.8771 8.73312C98.5879 8.07352 97.0888 7.74372 95.3798 7.74372C93.8208 7.74372 92.3966 8.07352 91.1074 8.73312C89.8182 9.36275 88.7088 10.3222 87.7794 11.6114C86.8499 12.8706 86.1304 14.4447 85.6207 16.3336C85.111 18.1925 84.8561 20.3512 84.8561 22.8097C84.8561 25.0583 85.096 27.1121 85.5757 28.971C86.0854 30.7999 86.805 32.389 87.7344 33.7382C88.6938 35.0574 89.8332 36.0768 91.1524 36.7963C92.5016 37.5159 94.0306 37.8757 95.7396 37.8757C96.789 37.8757 97.7934 37.7557 98.7528 37.5159C99.7422 37.2461 100.642 36.8863 101.451 36.4365C102.261 35.9568 102.965 35.4022 103.565 34.7725V27.5768C103.565 26.8273 103.46 26.3176 103.25 26.0478C103.04 25.7779 102.65 25.613 102.081 25.5531L99.2025 25.2382V24.1589H110.581V25.2382L108.107 25.5531C107.627 25.583 107.283 25.7479 107.073 26.0478C106.893 26.3176 106.803 26.8723 106.803 27.7118V39.0899H105.724L104.06 36.4365C103.22 37.1261 102.336 37.7108 101.406 38.1905C100.477 38.6702 99.4874 39.03 98.438 39.2698C97.4186 39.5097 96.3393 39.6296 95.1999 39.6296ZM113.087 39V37.9206L115.74 37.6058C116.31 37.5159 116.685 37.321 116.865 37.0212C117.045 36.7214 117.135 36.1667 117.135 35.3572V10.3971C117.135 9.61759 117.045 9.07792 116.865 8.7781C116.685 8.47828 116.28 8.29838 115.65 8.23842L113.087 7.96858V6.84425H132.92L134.404 13.905L133.19 14.2198C132.74 12.9006 132.305 11.8513 131.886 11.0717C131.496 10.2622 131.031 9.66257 130.492 9.2728C129.982 8.85305 129.352 8.58321 128.603 8.46329C127.853 8.31338 126.909 8.23842 125.769 8.23842H120.463V21.8203H125.634C126.654 21.8203 127.418 21.7453 127.928 21.5954C128.438 21.4155 128.813 21.0557 129.052 20.5161C129.322 19.9464 129.577 19.0769 129.817 17.9076L130.941 17.7727V27.1271L129.817 27.262C129.637 26.1227 129.412 25.2832 129.142 24.7435C128.872 24.1739 128.453 23.7991 127.883 23.6192C127.343 23.4093 126.519 23.3044 125.41 23.3044H120.463V37.6058H127.208C128.288 37.6058 129.187 37.5159 129.907 37.336C130.626 37.1561 131.226 36.8413 131.706 36.3916C132.185 35.9418 132.59 35.3122 132.92 34.5027C133.28 33.6632 133.625 32.5838 133.954 31.2646H135.214L134.314 39H113.087ZM139.286 39V37.9206L141.849 37.6508C142.419 37.5908 142.808 37.396 143.018 37.0662C143.228 36.7364 143.333 36.1817 143.333 35.4022V10.3522C143.333 9.6026 143.243 9.07792 143.063 8.7781C142.883 8.47828 142.479 8.29838 141.849 8.23842L139.286 7.96858V6.84425H147.111L163.751 34.053L163.796 33.963V10.3522C163.796 9.6026 163.691 9.07792 163.481 8.7781C163.271 8.47828 162.851 8.29838 162.222 8.23842L159.793 7.96858V6.84425H169.597V7.96858L166.989 8.23842C166.449 8.29838 166.074 8.47828 165.865 8.7781C165.655 9.07792 165.55 9.63258 165.55 10.4421V39H162.896L145.177 10.0373L145.132 10.1273V35.5371C145.132 36.2866 145.222 36.8113 145.402 37.1111C145.612 37.381 146.001 37.5609 146.571 37.6508L149.135 37.9206V39H139.286ZM179.67 39V37.9206L183.133 37.5159C183.643 37.4559 184.017 37.291 184.257 37.0212C184.497 36.7214 184.617 36.1667 184.617 35.3572V8.23842H181.334C180.255 8.23842 179.34 8.34336 178.591 8.55323C177.871 8.76311 177.241 9.15287 176.702 9.72253C176.192 10.2622 175.712 11.0417 175.263 12.0611C174.843 13.0805 174.363 14.4147 173.823 16.0637L172.609 15.7939L174.183 6.84425H198.514L199.998 15.7939L198.738 16.0637C198.259 14.4147 197.794 13.0805 197.344 12.0611C196.895 11.0417 196.4 10.2622 195.86 9.72253C195.351 9.15287 194.721 8.76311 193.971 8.55323C193.252 8.34336 192.367 8.23842 191.318 8.23842H187.945V35.4921C187.945 36.2417 188.035 36.7513 188.215 37.0212C188.425 37.291 188.844 37.4559 189.474 37.5159L192.892 37.9206V39H179.67ZM203.146 39V37.9206L205.799 37.6058C206.369 37.5159 206.743 37.321 206.923 37.0212C207.103 36.7214 207.193 36.1667 207.193 35.3572V10.3522C207.193 9.57262 207.088 9.04793 206.878 8.7781C206.698 8.47828 206.309 8.29838 205.709 8.23842L203.146 7.96858V6.84425H215.288V7.96858L211.96 8.23842C211.391 8.29838 211.001 8.46328 210.791 8.73312C210.611 9.00296 210.521 9.55763 210.521 10.3971V37.6058H216.682C217.762 37.6058 218.646 37.5309 219.336 37.381C220.055 37.2011 220.655 36.8713 221.135 36.3916C221.614 35.8819 222.049 35.1473 222.439 34.1879C222.859 33.1985 223.308 31.8943 223.788 30.2752H225.002L223.833 39H203.146ZM228.685 39V37.9206L231.339 37.6058C231.908 37.5159 232.283 37.321 232.463 37.0212C232.643 36.7214 232.733 36.1667 232.733 35.3572V10.3971C232.733 9.61759 232.643 9.07792 232.463 8.7781C232.283 8.47828 231.878 8.29838 231.249 8.23842L228.685 7.96858V6.84425H248.518L250.003 13.905L248.788 14.2198C248.339 12.9006 247.904 11.8513 247.484 11.0717C247.094 10.2622 246.63 9.66257 246.09 9.2728C245.58 8.85305 244.951 8.58321 244.201 8.46329C243.451 8.31338 242.507 8.23842 241.368 8.23842H236.061V21.8203H241.233C242.252 21.8203 243.017 21.7453 243.526 21.5954C244.036 21.4155 244.411 21.0557 244.651 20.5161C244.921 19.9464 245.175 19.0769 245.415 17.9076L246.54 17.7727V27.1271L245.415 27.262C245.235 26.1227 245.011 25.2832 244.741 24.7435C244.471 24.1739 244.051 23.7991 243.481 23.6192C242.942 23.4093 242.117 23.3044 241.008 23.3044H236.061V37.6058H242.807C243.886 37.6058 244.786 37.5159 245.505 37.336C246.225 37.1561 246.824 36.8413 247.304 36.3916C247.784 35.9418 248.189 35.3122 248.518 34.5027C248.878 33.6632 249.223 32.5838 249.553 31.2646H250.812L249.913 39H228.685ZM254.434 39V37.9206L257.132 37.5159C257.732 37.4259 258.107 37.2011 258.257 36.8413C258.437 36.4815 258.542 35.9268 258.572 35.1773L260.101 10.4421C260.161 9.66257 260.086 9.13788 259.876 8.86804C259.666 8.59821 259.276 8.41831 258.707 8.32837L256.008 7.96858V6.84425H264.418L273.728 31.1297L273.818 31.0398L282.947 6.84425H291.222V7.96858L288.479 8.28339C287.999 8.34336 287.639 8.50826 287.399 8.7781C287.189 9.04793 287.115 9.64758 287.175 10.577L288.794 35.4022C288.824 36.2117 288.943 36.7513 289.153 37.0212C289.363 37.291 289.738 37.4709 290.278 37.5609L292.976 37.9206V39H281.148V37.9206L284.026 37.5609C284.506 37.4709 284.866 37.291 285.106 37.0212C285.376 36.7214 285.481 36.1217 285.421 35.2223L283.802 9.45269V9.36275L274.267 34.2329H271.704L261.945 9.36275L261.9 9.45269L260.371 35.4471C260.341 36.1067 260.401 36.6014 260.55 36.9312C260.73 37.2311 261.15 37.4259 261.81 37.5159L264.508 37.9206V39H254.434ZM294.462 39V37.8757L296.305 37.5609C296.845 37.4709 297.235 37.291 297.475 37.0212C297.745 36.7214 298.029 36.1367 298.329 35.2672L307.909 6.84425H310.607L320.051 35.2672C320.321 36.0168 320.576 36.5565 320.816 36.8863C321.056 37.1861 321.49 37.396 322.12 37.5159L323.829 37.8307V39H313.26V37.8757L315.689 37.6058C316.288 37.5159 316.633 37.306 316.723 36.9762C316.843 36.6464 316.783 36.1217 316.543 35.4022L314.295 28.1615H302.467L300.128 35.2672C299.918 35.9268 299.858 36.4665 299.948 36.8863C300.038 37.276 300.428 37.5159 301.118 37.6058L303.726 37.9206V39H294.462ZM303.006 26.7224H313.8L308.493 10.1273H308.403L303.006 26.7224ZM325.859 39V37.9206L328.422 37.6508C328.992 37.5908 329.382 37.396 329.591 37.0662C329.801 36.7364 329.906 36.1817 329.906 35.4022V10.3522C329.906 9.6026 329.816 9.07792 329.636 8.7781C329.457 8.47828 329.052 8.29838 328.422 8.23842L325.859 7.96858V6.84425H333.684L350.324 34.053L350.369 33.963V10.3522C350.369 9.6026 350.264 9.07792 350.054 8.7781C349.844 8.47828 349.425 8.29838 348.795 8.23842L346.366 7.96858V6.84425H356.171V7.96858L353.562 8.23842C353.022 8.29838 352.648 8.47828 352.438 8.7781C352.228 9.07792 352.123 9.63258 352.123 10.4421V39H349.47L331.75 10.0373L331.705 10.1273V35.5371C331.705 36.2866 331.795 36.8113 331.975 37.1111C332.185 37.381 332.575 37.5609 333.144 37.6508L335.708 37.9206V39H325.859Z" fill="#262E19"/>
</svg>
