<svg width="22" height="23" viewBox="0 0 22 23" fill="none" xmlns="http://www.w3.org/2000/svg">
<path d="M2.75977 6.11805L5.48786 2.48059H16.4002L19.1283 6.11805M2.75977 6.11805V18.8491C2.75977 19.3315 2.95138 19.7941 3.29246 20.1352C3.63354 20.4763 4.09614 20.6679 4.57849 20.6679H17.3096C17.792 20.6679 18.2546 20.4763 18.5956 20.1352C18.9367 19.7941 19.1283 19.3315 19.1283 18.8491V6.11805M2.75977 6.11805H19.1283M14.5815 9.7555C14.5815 10.7202 14.1983 11.6454 13.5161 12.3276C12.834 13.0097 11.9088 13.393 10.944 13.393C9.97933 13.393 9.05413 13.0097 8.37197 12.3276C7.68982 11.6454 7.30659 10.7202 7.30659 9.7555" stroke="#181616" stroke-width="1.21249" stroke-linecap="round" stroke-linejoin="round"/>
</svg>
